<svg xmlns="http://www.w3.org/2000/svg" viewBox="0 0 310 310" role="img" aria-labelledby="title"><title id="title">Every Moment badge</title><defs><linearGradient id="rim" x2=".9" y2="1"><stop stop-color="#fff8ff"/><stop offset=".25" stop-color="#9faccd"/><stop offset=".43" stop-color="#fff8ff"/><stop offset=".62" stop-color="#525d86"/><stop offset=".85" stop-color="#9faccd"/><stop offset="1" stop-color="#fff8ff"/></linearGradient><linearGradient id="sky" x2=".5" y2="1"><stop stop-color="#363341"/><stop offset="1" stop-color="#10181d"/></linearGradient><linearGradient id="blue" x2=".8" y2="1"><stop stop-color="#f5e7ff"/><stop offset=".5" stop-color="#c9b9e9"/><stop offset="1" stop-color="#8c78b7"/></linearGradient><linearGradient id="green" x2=".8" y2="1"><stop stop-color="#f5e7ff"/><stop offset=".5" stop-color="#c9b9e9"/><stop offset="1" stop-color="#8c78b7"/></linearGradient><linearGradient id="pink" x2=".8" y2="1"><stop stop-color="#d5e8e9"/><stop offset=".5" stop-color="#f5e7ff"/><stop offset="1" stop-color="#c9b9e9"/></linearGradient><linearGradient id="fire" x2=".8" y2="1"><stop stop-color="#f5e7ff"/><stop offset=".5" stop-color="#c9b9e9"/><stop offset="1" stop-color="#8c78b7"/></linearGradient><radialGradient id="halo"><stop stop-color="#d7d5ed" stop-opacity=".6"/><stop offset="1" stop-color="#d7d5ed" stop-opacity="0"/></radialGradient><linearGradient id="sheen" x2="1"><stop stop-color="#fff" stop-opacity="0"/><stop offset=".5" stop-color="#fff" stop-opacity=".4"/><stop offset="1" stop-color="#fff" stop-opacity="0"/></linearGradient><clipPath id="inside"><path d="M150 22Q157 22 164 27L251 78Q261 83 261 95V205Q261 217 251 223L162 275Q150 282 139 275L49 223Q39 217 39 205V95Q39 83 49 78L137 27Q144 22 150 22Z" transform="translate(150 150) scale(.9) translate(-150 -150)"/></clipPath></defs><path d="M150 22Q157 22 164 27L251 78Q261 83 261 95V205Q261 217 251 223L162 275Q150 282 139 275L49 223Q39 217 39 205V95Q39 83 49 78L137 27Q144 22 150 22Z" fill="#525d86" transform="translate(4 9)"/><path d="M150 22Q157 22 164 27L251 78Q261 83 261 95V205Q261 217 251 223L162 275Q150 282 139 275L49 223Q39 217 39 205V95Q39 83 49 78L137 27Q144 22 150 22Z" fill="url(#rim)"/><path d="M150 22Q157 22 164 27L251 78Q261 83 261 95V205Q261 217 251 223L162 275Q150 282 139 275L49 223Q39 217 39 205V95Q39 83 49 78L137 27Q144 22 150 22Z" fill="url(#sky)" transform="translate(150 150) scale(.91) translate(-150 -150)"/><g clip-path="url(#inside)"><path d="M80 121L114 150L150 93L186 150L221 121L204 218H97Z" fill="url(#blue)" stroke="#ffe5cd" stroke-width="2" stroke-linejoin="round"/><path d="M99 199H204V219H99Z" fill="url(#pink)" stroke="#ffe5cd" stroke-width="2" stroke-linejoin="round"/><path class="shine" d="M-110 0H-65L150 310H105Z" fill="url(#sheen)"/></g><path d="M150 22Q157 22 164 27L251 78Q261 83 261 95V205Q261 217 251 223L162 275Q150 282 139 275L49 223Q39 217 39 205V95Q39 83 49 78L137 27Q144 22 150 22Z" fill="none" stroke="#fff8ff" stroke-width="1.5" opacity=".65"/><path d="M150 22Q157 22 164 27L251 78Q261 83 261 95V205Q261 217 251 223L162 275Q150 282 139 275L49 223Q39 217 39 205V95Q39 83 49 78L137 27Q144 22 150 22Z" fill="none" stroke="#fff8ff" stroke-width="1" opacity=".45" transform="translate(150 150) scale(.91) translate(-150 -150)"/></svg>