<svg xmlns="http://www.w3.org/2000/svg" viewBox="0 0 310 310" role="img" aria-labelledby="title"><title id="title">Thirty Letters badge</title><defs><linearGradient id="rim" x2=".9" y2="1"><stop stop-color="#fff4ae"/><stop offset=".25" stop-color="#b99343"/><stop offset=".43" stop-color="#fff4ae"/><stop offset=".62" stop-color="#594423"/><stop offset=".85" stop-color="#b99343"/><stop offset="1" stop-color="#fff4ae"/></linearGradient><linearGradient id="sky" x2=".6" y2="1"><stop stop-color="#202a62"/><stop offset="1" stop-color="#07192d"/></linearGradient><linearGradient id="blue" x2="1" y2="1"><stop stop-color="#b7f0ff"/><stop offset=".4" stop-color="#5288ff"/><stop offset="1" stop-color="#654bc5"/></linearGradient><linearGradient id="green" x2=".7" y2="1"><stop stop-color="#d4f4a6"/><stop offset=".45" stop-color="#60cba9"/><stop offset="1" stop-color="#277274"/></linearGradient><linearGradient id="pink" x2=".8" y2="1"><stop stop-color="#fff1ca"/><stop offset=".5" stop-color="#ffc2a4"/><stop offset="1" stop-color="#d07686"/></linearGradient><linearGradient id="fire" x2=".3" y2="1"><stop stop-color="#fff8b2"/><stop offset=".5" stop-color="#ffbe49"/><stop offset="1" stop-color="#f36d65"/></linearGradient><radialGradient id="halo"><stop stop-color="#f1d6b0" stop-opacity=".6"/><stop offset="1" stop-color="#f1d6b0" stop-opacity="0"/></radialGradient><linearGradient id="sheen" x2="1"><stop stop-color="#fff" stop-opacity="0"/><stop offset=".5" stop-color="#fff" stop-opacity=".4"/><stop offset="1" stop-color="#fff" stop-opacity="0"/></linearGradient><clipPath id="inside"><path d="M150 22Q157 22 164 27L251 78Q261 83 261 95V205Q261 217 251 223L162 275Q150 282 139 275L49 223Q39 217 39 205V95Q39 83 49 78L137 27Q144 22 150 22Z" transform="translate(150 150) scale(.9) translate(-150 -150)"/></clipPath></defs><path d="M150 22Q157 22 164 27L251 78Q261 83 261 95V205Q261 217 251 223L162 275Q150 282 139 275L49 223Q39 217 39 205V95Q39 83 49 78L137 27Q144 22 150 22Z" fill="#594423" transform="translate(4 9)"/><path d="M150 22Q157 22 164 27L251 78Q261 83 261 95V205Q261 217 251 223L162 275Q150 282 139 275L49 223Q39 217 39 205V95Q39 83 49 78L137 27Q144 22 150 22Z" fill="url(#rim)"/><path d="M150 22Q157 22 164 27L251 78Q261 83 261 95V205Q261 217 251 223L162 275Q150 282 139 275L49 223Q39 217 39 205V95Q39 83 49 78L137 27Q144 22 150 22Z" fill="url(#sky)" transform="translate(150 150) scale(.91) translate(-150 -150)"/><g clip-path="url(#inside)"><path d="M94 90H214Q192 107 199 126L188 211H86Q108 195 104 175L117 111H93Q78 104 94 90Z" fill="url(#pink)" stroke="#ffe5cd" stroke-width="2" stroke-linejoin="round"/><path d="M131 120H181M128 141H179M125 162H166" fill="none" stroke="#95788c" stroke-width="3" stroke-linecap="round"/><path d="M139 179H169V239L154 229L139 239Z" fill="url(#fire)" stroke="#ffe5cd" stroke-width="2" stroke-linejoin="round"/><path class="shine" d="M-110 0H-65L150 310H105Z" fill="url(#sheen)"/></g><path d="M150 22Q157 22 164 27L251 78Q261 83 261 95V205Q261 217 251 223L162 275Q150 282 139 275L49 223Q39 217 39 205V95Q39 83 49 78L137 27Q144 22 150 22Z" fill="none" stroke="#fff4ae" stroke-width="1.5" opacity=".65"/><path d="M150 22Q157 22 164 27L251 78Q261 83 261 95V205Q261 217 251 223L162 275Q150 282 139 275L49 223Q39 217 39 205V95Q39 83 49 78L137 27Q144 22 150 22Z" fill="none" stroke="#fff4ae" stroke-width="1" opacity=".45" transform="translate(150 150) scale(.91) translate(-150 -150)"/></svg>