<svg xmlns="http://www.w3.org/2000/svg" viewBox="0 0 310 310" role="img" aria-labelledby="title"><title id="title">A Hundred Letters badge</title><defs><linearGradient id="rim" x2=".9" y2="1"><stop stop-color="#fff8ff"/><stop offset=".25" stop-color="#9faccd"/><stop offset=".43" stop-color="#fff8ff"/><stop offset=".62" stop-color="#525d86"/><stop offset=".85" stop-color="#9faccd"/><stop offset="1" stop-color="#fff8ff"/></linearGradient><linearGradient id="sky" x2=".6" y2="1"><stop stop-color="#202a62"/><stop offset="1" stop-color="#07192d"/></linearGradient><linearGradient id="blue" x2="1" y2="1"><stop stop-color="#b7f0ff"/><stop offset=".4" stop-color="#5288ff"/><stop offset="1" stop-color="#654bc5"/></linearGradient><linearGradient id="green" x2=".7" y2="1"><stop stop-color="#d4f4a6"/><stop offset=".45" stop-color="#60cba9"/><stop offset="1" stop-color="#277274"/></linearGradient><linearGradient id="pink" x2=".8" y2="1"><stop stop-color="#fff1ca"/><stop offset=".5" stop-color="#ffc2a4"/><stop offset="1" stop-color="#d07686"/></linearGradient><linearGradient id="fire" x2=".3" y2="1"><stop stop-color="#fff8b2"/><stop offset=".5" stop-color="#ffbe49"/><stop offset="1" stop-color="#f36d65"/></linearGradient><radialGradient id="halo"><stop stop-color="#cbd8ee" stop-opacity=".6"/><stop offset="1" stop-color="#cbd8ee" stop-opacity="0"/></radialGradient><linearGradient id="sheen" x2="1"><stop stop-color="#fff" stop-opacity="0"/><stop offset=".5" stop-color="#fff" stop-opacity=".4"/><stop offset="1" stop-color="#fff" stop-opacity="0"/></linearGradient><clipPath id="inside"><path d="M150 24A126 126 0 1 1 149.9 24Z" transform="translate(150 150) scale(.9) translate(-150 -150)"/></clipPath></defs><path d="M150 24A126 126 0 1 1 149.9 24Z" fill="#525d86" transform="translate(4 9)"/><path d="M150 24A126 126 0 1 1 149.9 24Z" fill="url(#rim)"/><path d="M150 24A126 126 0 1 1 149.9 24Z" fill="url(#sky)" transform="translate(150 150) scale(.91) translate(-150 -150)"/><g clip-path="url(#inside)"><path d="M86 133Q86 98 119 98H178Q211 98 211 133V200H86Z" fill="url(#blue)" stroke="#bacdfc" stroke-width="2" stroke-linejoin="round"/><path d="M86 133Q86 98 119 98Q152 99 152 133V200H86Z" fill="url(#green)" stroke="#a7e4c7" stroke-width="2" stroke-linejoin="round"/><path d="M109 149H130" fill="none" stroke="#daf3dc" stroke-width="5" stroke-linecap="round"/><path d="M185 113V79H216V104H192V146H185Z" fill="url(#pink)" stroke="#ffe5cd" stroke-width="2" stroke-linejoin="round"/><path d="M147 202V237" fill="none" stroke="#d9bf91" stroke-width="12" stroke-linecap="round"/><path class="shine" d="M-110 0H-65L150 310H105Z" fill="url(#sheen)"/></g><path d="M150 24A126 126 0 1 1 149.9 24Z" fill="none" stroke="#fff8ff" stroke-width="1.5" opacity=".65"/><path d="M150 24A126 126 0 1 1 149.9 24Z" fill="none" stroke="#fff8ff" stroke-width="1" opacity=".45" transform="translate(150 150) scale(.91) translate(-150 -150)"/></svg>