<svg xmlns="http://www.w3.org/2000/svg" viewBox="0 0 310 310" role="img" aria-labelledby="title"><title id="title">Sharp Eye badge</title><defs><linearGradient id="rim" x2=".9" y2="1"><stop stop-color="#fff8ff"/><stop offset=".25" stop-color="#9faccd"/><stop offset=".43" stop-color="#fff8ff"/><stop offset=".62" stop-color="#525d86"/><stop offset=".85" stop-color="#9faccd"/><stop offset="1" stop-color="#fff8ff"/></linearGradient><linearGradient id="sky" x2=".6" y2="1"><stop stop-color="#202a62"/><stop offset="1" stop-color="#07192d"/></linearGradient><linearGradient id="blue" x2="1" y2="1"><stop stop-color="#b7f0ff"/><stop offset=".4" stop-color="#5288ff"/><stop offset="1" stop-color="#654bc5"/></linearGradient><linearGradient id="green" x2=".7" y2="1"><stop stop-color="#d4f4a6"/><stop offset=".45" stop-color="#60cba9"/><stop offset="1" stop-color="#277274"/></linearGradient><linearGradient id="pink" x2=".8" y2="1"><stop stop-color="#fff1ca"/><stop offset=".5" stop-color="#ffc2a4"/><stop offset="1" stop-color="#d07686"/></linearGradient><linearGradient id="fire" x2=".3" y2="1"><stop stop-color="#fff8b2"/><stop offset=".5" stop-color="#ffbe49"/><stop offset="1" stop-color="#f36d65"/></linearGradient><radialGradient id="halo"><stop stop-color="#d3d7f0" stop-opacity=".6"/><stop offset="1" stop-color="#d3d7f0" stop-opacity="0"/></radialGradient><linearGradient id="sheen" x2="1"><stop stop-color="#fff" stop-opacity="0"/><stop offset=".5" stop-color="#fff" stop-opacity=".4"/><stop offset="1" stop-color="#fff" stop-opacity="0"/></linearGradient><clipPath id="inside"><path d="M150 24A126 126 0 1 1 149.9 24Z" transform="translate(150 150) scale(.9) translate(-150 -150)"/></clipPath></defs><path d="M150 24A126 126 0 1 1 149.9 24Z" fill="#525d86" transform="translate(4 9)"/><path d="M150 24A126 126 0 1 1 149.9 24Z" fill="url(#rim)"/><path d="M150 24A126 126 0 1 1 149.9 24Z" fill="url(#sky)" transform="translate(150 150) scale(.91) translate(-150 -150)"/><g clip-path="url(#inside)"><path d="M68 151Q150 77 234 151Q150 229 68 151Z" fill="url(#pink)" stroke="#ffe5cd" stroke-width="2" stroke-linejoin="round"/><circle cx="151" cy="152" r="36" fill="url(#blue)" stroke="#b7d0f8" stroke-width="2"/><path d="M133 151L146 164L172 137" fill="none" stroke="#fff0cd" stroke-width="7" stroke-linecap="round"/><path class="shine" d="M-110 0H-65L150 310H105Z" fill="url(#sheen)"/></g><path d="M150 24A126 126 0 1 1 149.9 24Z" fill="none" stroke="#fff8ff" stroke-width="1.5" opacity=".65"/><path d="M150 24A126 126 0 1 1 149.9 24Z" fill="none" stroke="#fff8ff" stroke-width="1" opacity=".45" transform="translate(150 150) scale(.91) translate(-150 -150)"/></svg>