<svg xmlns="http://www.w3.org/2000/svg" viewBox="0 0 310 310" role="img" aria-labelledby="title"><title id="title">The Law badge</title><defs><linearGradient id="rim" x2=".8" y2="1"><stop offset="0" stop-color="#f5fcff"/><stop offset="0.25" stop-color="#7299b7"/><stop offset="0.5" stop-color="#e7faff"/><stop offset="0.75" stop-color="#405e88"/><stop offset="1" stop-color="#c3def1"/></linearGradient><linearGradient id="sky" x2=".8" y2="1"><stop offset="0" stop-color="#183c5b"/><stop offset="1" stop-color="#0b1528"/></linearGradient><linearGradient id="blue" x2=".8" y2="1"><stop offset="0" stop-color="#e2f7ff"/><stop offset="0.5" stop-color="#72b5f3"/><stop offset="1" stop-color="#346aac"/></linearGradient><linearGradient id="green" x2=".8" y2="1"><stop offset="0" stop-color="#e2f7ff"/><stop offset="0.5" stop-color="#72b5f3"/><stop offset="1" stop-color="#346aac"/></linearGradient><linearGradient id="pink" x2=".8" y2="1"><stop offset="0" stop-color="#efcc8c"/><stop offset="0.5" stop-color="#e2f7ff"/><stop offset="1" stop-color="#72b5f3"/></linearGradient><linearGradient id="fire" x2=".8" y2="1"><stop offset="0" stop-color="#e2f7ff"/><stop offset="0.5" stop-color="#72b5f3"/><stop offset="1" stop-color="#346aac"/></linearGradient><radialGradient id="halo"><stop stop-color="#d2d9ea" stop-opacity=".6"/><stop offset="1" stop-color="#d2d9ea" stop-opacity="0"/></radialGradient><linearGradient id="sheen" x2="1"><stop stop-color="#fff" stop-opacity="0"/><stop offset=".5" stop-color="#fff" stop-opacity=".4"/><stop offset="1" stop-color="#fff" stop-opacity="0"/></linearGradient><clipPath id="inside"><path d="M150 22Q157 22 164 27L251 78Q261 83 261 95V205Q261 217 251 223L162 275Q150 282 139 275L49 223Q39 217 39 205V95Q39 83 49 78L137 27Q144 22 150 22Z" transform="translate(150 150) scale(.9) translate(-150 -150)"/></clipPath><filter id="relief" x="-25%" y="-25%" width="160%" height="170%"><feDropShadow dx="2" dy="5" stdDeviation="2.2" flood-color="#000d1f" flood-opacity=".6"/></filter></defs><path d="M150 22Q157 22 164 27L251 78Q261 83 261 95V205Q261 217 251 223L162 275Q150 282 139 275L49 223Q39 217 39 205V95Q39 83 49 78L137 27Q144 22 150 22Z" fill="#525d86" transform="translate(4 9)"/><path d="M150 22Q157 22 164 27L251 78Q261 83 261 95V205Q261 217 251 223L162 275Q150 282 139 275L49 223Q39 217 39 205V95Q39 83 49 78L137 27Q144 22 150 22Z" fill="url(#rim)"/><path d="M150 22Q157 22 164 27L251 78Q261 83 261 95V205Q261 217 251 223L162 275Q150 282 139 275L49 223Q39 217 39 205V95Q39 83 49 78L137 27Q144 22 150 22Z" fill="url(#sky)" transform="translate(150 150) scale(.91) translate(-150 -150)"/><g clip-path="url(#inside)"><g filter="url(#relief)"><path d="M76 120Q76 85 112 85Q148 85 148 120V223H76Z" fill="url(#blue)" stroke="#c4d8fc" stroke-width="2" stroke-linejoin="round"/><path d="M155 120Q155 85 190 85Q226 85 226 120V223H155Z" fill="url(#pink)" stroke="#ffe5cd" stroke-width="2" stroke-linejoin="round"/><path d="M94 129H129M94 151H129M94 174H121M172 129H208M172 151H208M172 174H200" fill="none" stroke="#95788c" stroke-width="3" stroke-linecap="round"/></g><path d="M86 123Q86 95 108 95M166 122Q166 96 186 96" fill="none" stroke="#e2f7ff" stroke-width="3" stroke-linecap="round" opacity=".85"/><path class="shine" d="M-110 0H-65L150 310H105Z" fill="url(#sheen)"/></g><path d="M150 22Q157 22 164 27L251 78Q261 83 261 95V205Q261 217 251 223L162 275Q150 282 139 275L49 223Q39 217 39 205V95Q39 83 49 78L137 27Q144 22 150 22Z" fill="none" stroke="#fff8ff" stroke-width="1.5" opacity=".65"/><path d="M150 22Q157 22 164 27L251 78Q261 83 261 95V205Q261 217 251 223L162 275Q150 282 139 275L49 223Q39 217 39 205V95Q39 83 49 78L137 27Q144 22 150 22Z" fill="none" stroke="#fff8ff" stroke-width="1" opacity=".45" transform="translate(150 150) scale(.91) translate(-150 -150)"/></svg>