<svg xmlns="http://www.w3.org/2000/svg" width="320" height="220" viewBox="0 0 320 220" preserveAspectRatio="xMidYMid slice"><defs><linearGradient id="g4" x1="0" y1="0" x2="0" y2="1"><stop offset="0" stop-color="#1B2A4A"/><stop offset="1" stop-color="#5B3E63"/></linearGradient></defs><rect width="320" height="220" fill="url(#g4)"/><g fill="#FFF3D6"><circle cx="30" cy="30" r="2.5"/><circle cx="70" cy="60" r="2"/><circle cx="110" cy="22" r="3"/><circle cx="150" cy="50" r="2"/><circle cx="190" cy="18" r="2.5"/><circle cx="230" cy="44" r="3"/><circle cx="270" cy="24" r="2"/><circle cx="300" cy="60" r="2.5"/><circle cx="52" cy="96" r="2"/><circle cx="130" cy="88" r="2.5"/><circle cx="210" cy="84" r="2"/><circle cx="286" cy="104" r="2"/><circle cx="90" cy="120" r="1.8"/><circle cx="250" cy="130" r="1.8"/></g><path d="M246 70l4 9 10 1-7 7 2 10-9-5-9 5 2-10-7-7 10-1Z" fill="#FFC56B" stroke="#2A1F18" stroke-width="2.5" stroke-linejoin="round"/><path d="M-10 190c60-40 140-46 200-26s100 16 140 0v70H-10Z" fill="#2F5D46" stroke="#2A1F18" stroke-width="3.5"/><circle cx="120" cy="140" r="9" fill="#E8A93B" stroke="#2A1F18" stroke-width="3"/><path d="M114 150h12l6 30h-24Z" fill="#A8432A" stroke="#2A1F18" stroke-width="3" stroke-linejoin="round"/><path d="M138 182V150a7 7 0 0 0-10-6" fill="none" stroke="#2A1F18" stroke-width="3.5" stroke-linecap="round"/></svg>
