<svg xmlns="http://www.w3.org/2000/svg" viewBox="0 0 300 300" role="img" aria-labelledby="title"><title id="title">Garden Set badge</title><defs><linearGradient id="paper" x1="0" y1="0" x2=".8" y2="1"><stop stop-color="#fff6db"/><stop offset=".5" stop-color="#eddbb4"/><stop offset="1" stop-color="#bc9564"/></linearGradient><linearGradient id="copper" x1="0" y1="0" x2="1" y2="1"><stop stop-color="#ffd2a1"/><stop offset=".2" stop-color="#d58458"/><stop offset=".5" stop-color="#a34f32"/><stop offset=".8" stop-color="#e6a276"/><stop offset="1" stop-color="#753b2a"/></linearGradient><linearGradient id="gold" x1="0" y1="0" x2="1" y2="1"><stop stop-color="#ffefb3"/><stop offset=".2" stop-color="#d5a84d"/><stop offset=".48" stop-color="#fff0b0"/><stop offset=".7" stop-color="#ae7326"/><stop offset="1" stop-color="#f0d38b"/></linearGradient><radialGradient id="amber" cx=".38" cy=".2" r=".85"><stop stop-color="#ffd97d"/><stop offset=".4" stop-color="#d88a26"/><stop offset=".8" stop-color="#82441f"/><stop offset="1" stop-color="#4a291c"/></radialGradient><linearGradient id="green" x1="0" y1="0" x2="1" y2="1"><stop stop-color="#94b392"/><stop offset=".25" stop-color="#477d64"/><stop offset=".65" stop-color="#234c3d"/><stop offset="1" stop-color="#142f2a"/></linearGradient><linearGradient id="silver" x1="0" y1="0" x2="1" y2=".8"><stop stop-color="#faf4e8"/><stop offset=".19" stop-color="#9aadb3"/><stop offset=".37" stop-color="#f6ffff"/><stop offset=".51" stop-color="#839398"/><stop offset=".7" stop-color="#dce2d7"/><stop offset=".83" stop-color="#a7b7ca"/><stop offset="1" stop-color="#f0e4d4"/></linearGradient><linearGradient id="foil" x1="0" y1="0" x2="1" y2="1"><stop stop-color="#6e8492"/><stop offset=".25" stop-color="#c3d5d3"/><stop offset=".5" stop-color="#c3b9cf"/><stop offset=".7" stop-color="#d1d6bf"/><stop offset="1" stop-color="#6b7c8c"/></linearGradient><linearGradient id="sheen"><stop stop-color="white" stop-opacity="0"/><stop offset=".5" stop-color="white" stop-opacity=".7"/><stop offset="1" stop-color="white" stop-opacity="0"/></linearGradient></defs><defs><linearGradient id="enamel" x1="0" y1="0" x2=".8" y2="1"><stop stop-color="#78B9B4"/><stop offset=".55" stop-color="#264F60"/><stop offset="1" stop-color="#182720"/></linearGradient><clipPath id="surface"><path d="M150 20L254 80V218L150 280L46 218V80Z"/></clipPath></defs><path d="M145 17Q150 14 158 18L251 72Q258 78 258 89V209Q258 219 249 224L159 278Q150 283 142 278L49 223Q42 219 42 209V88Q42 78 51 72Z" fill="#566575" transform="translate(3 5)"/><path d="M145 17Q150 14 158 18L251 72Q258 78 258 89V209Q258 219 249 224L159 278Q150 283 142 278L49 223Q42 219 42 209V88Q42 78 51 72Z" fill="url(#silver)" stroke="#f4f2e8" stroke-width="2"/><path d="M150 32L243 87V210L150 265L57 210V87Z" fill="url(#foil)" stroke="#5c7280" stroke-width="2"/><path d="M150 42L234 92V204L150 254L66 204V92Z" fill="none" stroke="#f2f4eb" opacity=".7" stroke-dasharray="1 6" stroke-width="2"/><g transform="rotate(-9 150 150)"><rect x="101" y="84" width="100" height="137" rx="8" fill="#536775"/><rect x="96" y="77" width="100" height="137" rx="8" fill="url(#silver)" stroke="#f7f8e9" stroke-width="2"/><path d="M107 79V211" stroke="#829491" stroke-width="2"/><rect x="116" y="91" width="68" height="106" rx="4" fill="none" stroke="#7c8c98"/><path d="M150 111L157 134L179 141L157 148L150 171L143 148L122 141L143 134Z" fill="#f8fff8" stroke="#7c9095" stroke-width="2"/></g><g clip-path="url(#surface)"><path class="shine" d="M-100 0H-35L165 300H100Z" fill="url(#sheen)"/></g></svg>