<svg xmlns="http://www.w3.org/2000/svg" viewBox="0 0 300 300" role="img" aria-labelledby="title"><title id="title">First Letter badge</title><defs><linearGradient id="paper" x1="0" y1="0" x2=".8" y2="1"><stop stop-color="#fff6db"/><stop offset=".5" stop-color="#eddbb4"/><stop offset="1" stop-color="#bc9564"/></linearGradient><linearGradient id="copper" x1="0" y1="0" x2="1" y2="1"><stop stop-color="#ffd2a1"/><stop offset=".2" stop-color="#d58458"/><stop offset=".5" stop-color="#a34f32"/><stop offset=".8" stop-color="#e6a276"/><stop offset="1" stop-color="#753b2a"/></linearGradient><linearGradient id="gold" x1="0" y1="0" x2="1" y2="1"><stop stop-color="#ffefb3"/><stop offset=".2" stop-color="#d5a84d"/><stop offset=".48" stop-color="#fff0b0"/><stop offset=".7" stop-color="#ae7326"/><stop offset="1" stop-color="#f0d38b"/></linearGradient><radialGradient id="amber" cx=".38" cy=".2" r=".85"><stop stop-color="#ffd97d"/><stop offset=".4" stop-color="#d88a26"/><stop offset=".8" stop-color="#82441f"/><stop offset="1" stop-color="#4a291c"/></radialGradient><linearGradient id="green" x1="0" y1="0" x2="1" y2="1"><stop stop-color="#94b392"/><stop offset=".25" stop-color="#477d64"/><stop offset=".65" stop-color="#234c3d"/><stop offset="1" stop-color="#142f2a"/></linearGradient><linearGradient id="silver" x1="0" y1="0" x2="1" y2=".8"><stop stop-color="#faf4e8"/><stop offset=".19" stop-color="#9aadb3"/><stop offset=".37" stop-color="#f6ffff"/><stop offset=".51" stop-color="#839398"/><stop offset=".7" stop-color="#dce2d7"/><stop offset=".83" stop-color="#a7b7ca"/><stop offset="1" stop-color="#f0e4d4"/></linearGradient><linearGradient id="foil" x1="0" y1="0" x2="1" y2="1"><stop stop-color="#6e8492"/><stop offset=".25" stop-color="#c3d5d3"/><stop offset=".5" stop-color="#c3b9cf"/><stop offset=".7" stop-color="#d1d6bf"/><stop offset="1" stop-color="#6b7c8c"/></linearGradient><linearGradient id="sheen"><stop stop-color="white" stop-opacity="0"/><stop offset=".5" stop-color="white" stop-opacity=".7"/><stop offset="1" stop-color="white" stop-opacity="0"/></linearGradient></defs><defs><linearGradient id="enamel" x1="0" y1="0" x2=".8" y2="1"><stop stop-color="#D68A5B"/><stop offset=".55" stop-color="#884C34"/><stop offset="1" stop-color="#182720"/></linearGradient><clipPath id="surface"><path d="M32 59H263V225H32Z"/></clipPath></defs><g class="ribbon"><path d="M80 180L62 274L102 254L126 279L144 188" fill="url(#green)"/><path d="M160 190L180 279L204 254L243 272L224 179" fill="url(#green)"/></g><g transform="rotate(-7 150 140)"><rect x="38" y="67" width="231" height="166" rx="20" fill="#795136"/><rect x="32" y="59" width="231" height="166" rx="18" fill="url(#paper)" stroke="#fff0cf" stroke-width="2"/><path d="M34 67L143 152Q151 158 159 151L260 65" fill="#ad845e" opacity=".3"/><path d="M33 216L125 140M261 216L174 140" fill="none" stroke="#b9996c" stroke-width="3"/><path d="M34 66L139 145Q150 154 161 145L260 66" fill="#f5e5c4" stroke="#fff6df" stroke-width="2"/><path d="M34 217L128 145L147 158L174 145L260 217" fill="#e6cfaa" opacity=".5"/><circle cx="153" cy="154" r="34" fill="#603b2b" opacity=".25"/><circle cx="150" cy="148" r="32" fill="url(#copper)" stroke="#e8ad7f" stroke-width="2"/><circle cx="150" cy="148" r="24" fill="none" stroke="#793c28"/><path d="M150 161L137 149C127 137 144 129 150 140C159 128 173 140 163 150Z" fill="#f4c995" stroke="#873f28" stroke-width="2"/></g><g clip-path="url(#surface)"><path class="shine" d="M-100 0H-35L165 300H100Z" fill="url(#sheen)"/></g></svg>